<svg width="470" height="110" viewBox="0 0 470 110" fill="none" xmlns="http://www.w3.org/2000/svg">
<path d="M144.898 66V43.6H153.282C155.181 43.6 156.813 43.9093 158.178 44.528C159.543 45.1253 160.589 46 161.314 47.152C162.061 48.2827 162.434 49.6587 162.434 51.28C162.434 52.8587 162.061 54.224 161.314 55.376C160.589 56.5067 159.543 57.3813 158.178 58C156.813 58.6187 155.181 58.928 153.282 58.928H146.21L147.266 57.808V66H144.898ZM147.266 58L146.21 56.848H153.218C155.458 56.848 157.154 56.368 158.306 55.408C159.479 54.4267 160.066 53.0507 160.066 51.28C160.066 49.488 159.479 48.1013 158.306 47.12C157.154 46.1387 155.458 45.648 153.218 45.648H146.21L147.266 44.528V58ZM166.668 66V49.2H168.844V53.776L168.62 52.976C169.089 51.696 169.879 50.7253 170.988 50.064C172.097 49.3813 173.473 49.04 175.116 49.04V51.248C175.031 51.248 174.945 51.248 174.86 51.248C174.775 51.2267 174.689 51.216 174.604 51.216C172.833 51.216 171.447 51.76 170.444 52.848C169.441 53.9147 168.94 55.44 168.94 57.424V66H166.668ZM186.242 66.16C184.492 66.16 182.956 65.7973 181.634 65.072C180.311 64.3253 179.276 63.312 178.53 62.032C177.783 60.7307 177.41 59.248 177.41 57.584C177.41 55.92 177.762 54.448 178.466 53.168C179.191 51.888 180.172 50.8853 181.41 50.16C182.668 49.4133 184.076 49.04 185.634 49.04C187.212 49.04 188.61 49.4027 189.826 50.128C191.063 50.832 192.034 51.8347 192.738 53.136C193.442 54.416 193.794 55.8987 193.794 57.584C193.794 57.6907 193.783 57.808 193.762 57.936C193.762 58.0427 193.762 58.16 193.762 58.288H179.138V56.592H192.546L191.65 57.264C191.65 56.048 191.383 54.9707 190.85 54.032C190.338 53.072 189.634 52.3253 188.738 51.792C187.842 51.2587 186.807 50.992 185.634 50.992C184.482 50.992 183.447 51.2587 182.53 51.792C181.612 52.3253 180.898 53.072 180.386 54.032C179.874 54.992 179.618 56.0907 179.618 57.328V57.68C179.618 58.96 179.895 60.0907 180.45 61.072C181.026 62.032 181.815 62.7893 182.818 63.344C183.842 63.8773 185.004 64.144 186.306 64.144C187.33 64.144 188.279 63.9627 189.154 63.6C190.05 63.2373 190.818 62.6827 191.458 61.936L192.738 63.408C191.991 64.304 191.052 64.9867 189.922 65.456C188.812 65.9253 187.586 66.16 186.242 66.16ZM202.426 66L194.97 49.2H197.338L204.186 64.784H203.066L210.01 49.2H212.25L204.762 66H202.426ZM215.449 66V49.2H217.721V66H215.449ZM216.601 45.488C216.132 45.488 215.737 45.328 215.417 45.008C215.097 44.688 214.937 44.304 214.937 43.856C214.937 43.408 215.097 43.0347 215.417 42.736C215.737 42.416 216.132 42.256 216.601 42.256C217.071 42.256 217.465 42.4053 217.785 42.704C218.105 43.0027 218.265 43.376 218.265 43.824C218.265 44.2933 218.105 44.688 217.785 45.008C217.487 45.328 217.092 45.488 216.601 45.488ZM231.179 66.16C229.43 66.16 227.894 65.7973 226.571 65.072C225.248 64.3253 224.214 63.312 223.467 62.032C222.72 60.7307 222.347 59.248 222.347 57.584C222.347 55.92 222.699 54.448 223.403 53.168C224.128 51.888 225.11 50.8853 226.347 50.16C227.606 49.4133 229.014 49.04 230.571 49.04C232.15 49.04 233.547 49.4027 234.763 50.128C236 50.832 236.971 51.8347 237.675 53.136C238.379 54.416 238.731 55.8987 238.731 57.584C238.731 57.6907 238.72 57.808 238.699 57.936C238.699 58.0427 238.699 58.16 238.699 58.288H224.075V56.592H237.483L236.587 57.264C236.587 56.048 236.32 54.9707 235.787 54.032C235.275 53.072 234.571 52.3253 233.675 51.792C232.779 51.2587 231.744 50.992 230.571 50.992C229.419 50.992 228.384 51.2587 227.467 51.792C226.55 52.3253 225.835 53.072 225.323 54.032C224.811 54.992 224.555 56.0907 224.555 57.328V57.68C224.555 58.96 224.832 60.0907 225.387 61.072C225.963 62.032 226.752 62.7893 227.755 63.344C228.779 63.8773 229.942 64.144 231.243 64.144C232.267 64.144 233.216 63.9627 234.091 63.6C234.987 63.2373 235.755 62.6827 236.395 61.936L237.675 63.408C236.928 64.304 235.99 64.9867 234.859 65.456C233.75 65.9253 232.523 66.16 231.179 66.16ZM246.467 66L240.131 49.2H242.307L248.067 64.784H247.075L252.995 49.2H254.947L260.803 64.784H259.811L265.667 49.2H267.747L261.379 66H259.235L253.603 51.344H254.275L248.611 66H246.467ZM280.023 66V43.6H289.143C291.532 43.6 293.623 44.08 295.415 45.04C297.228 45.9787 298.636 47.2907 299.639 48.976C300.642 50.6613 301.143 52.6027 301.143 54.8C301.143 56.9973 300.642 58.9387 299.639 60.624C298.636 62.3093 297.228 63.632 295.415 64.592C293.623 65.5307 291.532 66 289.143 66H280.023ZM282.391 63.952H289.015C290.999 63.952 292.716 63.568 294.167 62.8C295.639 62.0107 296.78 60.9333 297.591 59.568C298.402 58.1813 298.807 56.592 298.807 54.8C298.807 52.9867 298.402 51.3973 297.591 50.032C296.78 48.6667 295.639 47.6 294.167 46.832C292.716 46.0427 290.999 45.648 289.015 45.648H282.391V63.952ZM305.981 66V49.2H308.253V66H305.981ZM307.133 45.488C306.663 45.488 306.269 45.328 305.949 45.008C305.629 44.688 305.469 44.304 305.469 43.856C305.469 43.408 305.629 43.0347 305.949 42.736C306.269 42.416 306.663 42.256 307.133 42.256C307.602 42.256 307.997 42.4053 308.317 42.704C308.637 43.0027 308.797 43.376 308.797 43.824C308.797 44.2933 308.637 44.688 308.317 45.008C308.018 45.328 307.623 45.488 307.133 45.488ZM325.102 66V62.288L325.006 61.68V55.472C325.006 54.0427 324.601 52.944 323.79 52.176C323.001 51.408 321.817 51.024 320.238 51.024C319.15 51.024 318.116 51.2053 317.134 51.568C316.153 51.9307 315.321 52.4107 314.638 53.008L313.614 51.312C314.468 50.5867 315.492 50.032 316.686 49.648C317.881 49.2427 319.14 49.04 320.462 49.04C322.638 49.04 324.313 49.584 325.486 50.672C326.681 51.7387 327.278 53.3707 327.278 55.568V66H325.102ZM319.31 66.16C318.052 66.16 316.953 65.9573 316.014 65.552C315.097 65.1253 314.393 64.5493 313.902 63.824C313.412 63.0773 313.166 62.224 313.166 61.264C313.166 60.3893 313.369 59.6 313.774 58.896C314.201 58.1707 314.884 57.5947 315.822 57.168C316.782 56.72 318.062 56.496 319.662 56.496H325.454V58.192H319.726C318.105 58.192 316.974 58.48 316.334 59.056C315.716 59.632 315.406 60.3467 315.406 61.2C315.406 62.16 315.78 62.928 316.526 63.504C317.273 64.08 318.318 64.368 319.662 64.368C320.942 64.368 322.041 64.08 322.958 63.504C323.897 62.9067 324.58 62.0533 325.006 60.944L325.518 62.512C325.092 63.6213 324.345 64.5067 323.278 65.168C322.233 65.8293 320.91 66.16 319.31 66.16ZM340.617 72.368C339.081 72.368 337.609 72.144 336.201 71.696C334.793 71.248 333.652 70.608 332.777 69.776L333.929 68.048C334.719 68.752 335.689 69.3067 336.841 69.712C338.015 70.1387 339.252 70.352 340.553 70.352C342.687 70.352 344.255 69.8507 345.257 68.848C346.26 67.8667 346.761 66.3307 346.761 64.24V60.048L347.081 57.168L346.857 54.288V49.2H349.033V63.952C349.033 66.8533 348.319 68.976 346.889 70.32C345.481 71.6853 343.391 72.368 340.617 72.368ZM340.201 65.36C338.601 65.36 337.161 65.0187 335.881 64.336C334.601 63.632 333.588 62.6613 332.841 61.424C332.116 60.1867 331.753 58.768 331.753 57.168C331.753 55.568 332.116 54.16 332.841 52.944C333.588 51.7067 334.601 50.7467 335.881 50.064C337.161 49.3813 338.601 49.04 340.201 49.04C341.695 49.04 343.039 49.3493 344.233 49.968C345.428 50.5867 346.377 51.504 347.081 52.72C347.785 53.936 348.137 55.4187 348.137 57.168C348.137 58.9173 347.785 60.4 347.081 61.616C346.377 62.832 345.428 63.76 344.233 64.4C343.039 65.04 341.695 65.36 340.201 65.36ZM340.425 63.344C341.663 63.344 342.761 63.088 343.721 62.576C344.681 62.0427 345.439 61.3173 345.993 60.4C346.548 59.4613 346.825 58.384 346.825 57.168C346.825 55.952 346.548 54.8853 345.993 53.968C345.439 53.0507 344.681 52.336 343.721 51.824C342.761 51.2907 341.663 51.024 340.425 51.024C339.209 51.024 338.111 51.2907 337.129 51.824C336.169 52.336 335.412 53.0507 334.857 53.968C334.324 54.8853 334.057 55.952 334.057 57.168C334.057 58.384 334.324 59.4613 334.857 60.4C335.412 61.3173 336.169 62.0427 337.129 62.576C338.111 63.088 339.209 63.344 340.425 63.344ZM363.932 49.04C365.297 49.04 366.492 49.3067 367.516 49.84C368.561 50.352 369.372 51.1413 369.948 52.208C370.545 53.2747 370.844 54.6187 370.844 56.24V66H368.572V56.464C368.572 54.6933 368.124 53.36 367.228 52.464C366.353 51.5467 365.116 51.088 363.516 51.088C362.321 51.088 361.276 51.3333 360.38 51.824C359.505 52.2933 358.822 52.9867 358.332 53.904C357.862 54.8 357.628 55.888 357.628 57.168V66H355.356V49.2H357.532V53.808L357.18 52.944C357.713 51.728 358.566 50.7787 359.74 50.096C360.913 49.392 362.31 49.04 363.932 49.04ZM383.829 66.16C382.207 66.16 380.746 65.7973 379.445 65.072C378.165 64.3253 377.151 63.312 376.405 62.032C375.658 60.7307 375.285 59.248 375.285 57.584C375.285 55.8987 375.658 54.416 376.405 53.136C377.151 51.856 378.165 50.8533 379.445 50.128C380.725 49.4027 382.186 49.04 383.829 49.04C385.493 49.04 386.965 49.4027 388.245 50.128C389.546 50.8533 390.559 51.856 391.285 53.136C392.031 54.416 392.405 55.8987 392.405 57.584C392.405 59.248 392.031 60.7307 391.285 62.032C390.559 63.312 389.546 64.3253 388.245 65.072C386.943 65.7973 385.471 66.16 383.829 66.16ZM383.829 64.144C385.045 64.144 386.122 63.8773 387.061 63.344C387.999 62.7893 388.735 62.0213 389.269 61.04C389.823 60.0373 390.101 58.8853 390.101 57.584C390.101 56.2613 389.823 55.1093 389.269 54.128C388.735 53.1467 387.999 52.3893 387.061 51.856C386.122 51.3013 385.055 51.024 383.861 51.024C382.666 51.024 381.599 51.3013 380.661 51.856C379.722 52.3893 378.975 53.1467 378.421 54.128C377.866 55.1093 377.589 56.2613 377.589 57.584C377.589 58.8853 377.866 60.0373 378.421 61.04C378.975 62.0213 379.722 62.7893 380.661 63.344C381.599 63.8773 382.655 64.144 383.829 64.144ZM401.555 66.16C400.168 66.16 398.856 65.968 397.619 65.584C396.382 65.1787 395.411 64.6773 394.707 64.08L395.731 62.288C396.414 62.8 397.288 63.248 398.355 63.632C399.422 63.9947 400.542 64.176 401.715 64.176C403.315 64.176 404.467 63.9307 405.171 63.44C405.875 62.928 406.227 62.256 406.227 61.424C406.227 60.8053 406.024 60.3253 405.619 59.984C405.235 59.6213 404.723 59.3547 404.083 59.184C403.443 58.992 402.728 58.832 401.939 58.704C401.15 58.576 400.36 58.4267 399.571 58.256C398.803 58.0853 398.099 57.84 397.459 57.52C396.819 57.1787 396.296 56.72 395.891 56.144C395.507 55.568 395.315 54.8 395.315 53.84C395.315 52.9227 395.571 52.1013 396.083 51.376C396.595 50.6507 397.342 50.0853 398.323 49.68C399.326 49.2533 400.542 49.04 401.971 49.04C403.059 49.04 404.147 49.1893 405.235 49.488C406.323 49.7653 407.219 50.1387 407.923 50.608L406.931 52.432C406.184 51.92 405.384 51.5573 404.531 51.344C403.678 51.1093 402.824 50.992 401.971 50.992C400.456 50.992 399.336 51.2587 398.611 51.792C397.907 52.304 397.555 52.9653 397.555 53.776C397.555 54.416 397.747 54.9173 398.131 55.28C398.536 55.6427 399.059 55.9307 399.699 56.144C400.36 56.336 401.075 56.496 401.843 56.624C402.632 56.752 403.411 56.912 404.179 57.104C404.968 57.2747 405.683 57.52 406.323 57.84C406.984 58.1387 407.507 58.576 407.891 59.152C408.296 59.7067 408.499 60.4427 408.499 61.36C408.499 62.3413 408.222 63.1947 407.667 63.92C407.134 64.624 406.344 65.1787 405.299 65.584C404.275 65.968 403.027 66.16 401.555 66.16ZM417.98 66.16C416.401 66.16 415.185 65.7333 414.332 64.88C413.479 64.0267 413.052 62.8213 413.052 61.264V45.488H415.324V61.136C415.324 62.1173 415.569 62.8747 416.06 63.408C416.572 63.9413 417.297 64.208 418.236 64.208C419.239 64.208 420.071 63.92 420.732 63.344L421.532 64.976C421.084 65.3813 420.54 65.68 419.9 65.872C419.281 66.064 418.641 66.16 417.98 66.16ZM410.044 51.088V49.2H420.444V51.088H410.044ZM425.668 66V49.2H427.94V66H425.668ZM426.82 45.488C426.351 45.488 425.956 45.328 425.636 45.008C425.316 44.688 425.156 44.304 425.156 43.856C425.156 43.408 425.316 43.0347 425.636 42.736C425.956 42.416 426.351 42.256 426.82 42.256C427.289 42.256 427.684 42.4053 428.004 42.704C428.324 43.0027 428.484 43.376 428.484 43.824C428.484 44.2933 428.324 44.688 428.004 45.008C427.705 45.328 427.311 45.488 426.82 45.488ZM441.238 66.16C439.574 66.16 438.08 65.7973 436.758 65.072C435.456 64.3253 434.432 63.312 433.686 62.032C432.939 60.7307 432.566 59.248 432.566 57.584C432.566 55.8987 432.939 54.416 433.686 53.136C434.432 51.856 435.456 50.8533 436.758 50.128C438.08 49.4027 439.574 49.04 441.238 49.04C442.667 49.04 443.958 49.3173 445.11 49.872C446.262 50.4267 447.168 51.2587 447.83 52.368L446.134 53.52C445.558 52.6667 444.843 52.0373 443.99 51.632C443.136 51.2267 442.208 51.024 441.206 51.024C440.011 51.024 438.934 51.3013 437.974 51.856C437.014 52.3893 436.256 53.1467 435.702 54.128C435.147 55.1093 434.87 56.2613 434.87 57.584C434.87 58.9067 435.147 60.0587 435.702 61.04C436.256 62.0213 437.014 62.7893 437.974 63.344C438.934 63.8773 440.011 64.144 441.206 64.144C442.208 64.144 443.136 63.9413 443.99 63.536C444.843 63.1307 445.558 62.512 446.134 61.68L447.83 62.832C447.168 63.92 446.262 64.752 445.11 65.328C443.958 65.8827 442.667 66.16 441.238 66.16ZM456.805 66.16C455.418 66.16 454.106 65.968 452.869 65.584C451.632 65.1787 450.661 64.6773 449.957 64.08L450.981 62.288C451.664 62.8 452.538 63.248 453.605 63.632C454.672 63.9947 455.792 64.176 456.965 64.176C458.565 64.176 459.717 63.9307 460.421 63.44C461.125 62.928 461.477 62.256 461.477 61.424C461.477 60.8053 461.274 60.3253 460.869 59.984C460.485 59.6213 459.973 59.3547 459.333 59.184C458.693 58.992 457.978 58.832 457.189 58.704C456.4 58.576 455.61 58.4267 454.821 58.256C454.053 58.0853 453.349 57.84 452.709 57.52C452.069 57.1787 451.546 56.72 451.141 56.144C450.757 55.568 450.565 54.8 450.565 53.84C450.565 52.9227 450.821 52.1013 451.333 51.376C451.845 50.6507 452.592 50.0853 453.573 49.68C454.576 49.2533 455.792 49.04 457.221 49.04C458.309 49.04 459.397 49.1893 460.485 49.488C461.573 49.7653 462.469 50.1387 463.173 50.608L462.181 52.432C461.434 51.92 460.634 51.5573 459.781 51.344C458.928 51.1093 458.074 50.992 457.221 50.992C455.706 50.992 454.586 51.2587 453.861 51.792C453.157 52.304 452.805 52.9653 452.805 53.776C452.805 54.416 452.997 54.9173 453.381 55.28C453.786 55.6427 454.309 55.9307 454.949 56.144C455.61 56.336 456.325 56.496 457.093 56.624C457.882 56.752 458.661 56.912 459.429 57.104C460.218 57.2747 460.933 57.52 461.573 57.84C462.234 58.1387 462.757 58.576 463.141 59.152C463.546 59.7067 463.749 60.4427 463.749 61.36C463.749 62.3413 463.472 63.1947 462.917 63.92C462.384 64.624 461.594 65.1787 460.549 65.584C459.525 65.968 458.277 66.16 456.805 66.16Z" fill="white"/>
<ellipse cx="113.5" cy="54.5" rx="4.5" ry="16.5" fill="#00A8CC"/>
<line x1="36.4" y1="41.2" x2="48.4" y2="32.2" stroke="#9D63DD" stroke-width="2"/>
<line x1="52" y1="55" x2="52" y2="35" stroke="#9D63DD" stroke-width="2"/>
<line x1="28" y1="55" x2="1" y2="55" stroke="#9D63DD" stroke-width="2"/>
<line x1="22" y1="50" x2="13" y2="50" stroke="#9D63DD" stroke-width="2"/>
<line x1="22" y1="61" x2="13" y2="61" stroke="#9D63DD" stroke-width="2"/>
<line x1="30" y1="66" x2="11" y2="66" stroke="#9D63DD" stroke-width="2"/>
<line x1="11.6727" y1="65.7399" x2="0.672673" y2="75.7399" stroke="#9D63DD" stroke-width="2"/>
<line y1="-1" x2="14.8661" y2="-1" transform="matrix(-0.73994 -0.672673 -0.672673 0.73994 11 45)" stroke="#9D63DD" stroke-width="2"/>
<line x1="31" y1="44" x2="11" y2="44" stroke="#9D63DD" stroke-width="2"/>
<line x1="37.6332" y1="68.226" x2="48.6332" y2="77.226" stroke="#9D63DD" stroke-width="2"/>
<line x1="55.5097" y1="77.1284" x2="71.5097" y2="68.1284" stroke="#9D63DD" stroke-width="2"/>
<circle cx="33.5" cy="43.5" r="5.5" fill="#00A8CC"/>
<circle cx="51.5" cy="79.5" r="5.5" fill="#00A8CC"/>
<circle cx="33.5" cy="65.5" r="5.5" fill="#00A8CC"/>
<circle cx="76.5" cy="66.5" r="5.5" fill="#00A8CC"/>
<circle cx="76.5" cy="42.5" r="5.5" fill="#00A8CC"/>
<circle cx="51.5" cy="55.5" r="5.5" fill="#00A8CC"/>
<circle cx="51.5" cy="30.5" r="5.5" fill="#00A8CC"/>
<path d="M24.5857 90C32.259 96.8641 42.1805 101 52.9998 101C63.8189 101 73.7405 96.8641 81.4138 90H82.8943C74.9454 97.4635 64.4752 102 52.9998 102C41.5242 102 31.0541 97.4636 23.1052 90H24.5857ZM52.9998 7C65.4677 7 76.7504 12.3534 84.9001 21H83.5105C75.5923 12.9466 64.8327 8 52.9998 8C41.1668 8.00006 30.4072 12.9465 22.489 21H21.0994C29.2491 12.3534 40.5318 7.00006 52.9998 7Z" fill="#00A8CC"/>
<path d="M12.4167 88C22.0384 100.19 36.8703 108 53.4998 108C70.1292 108 84.961 100.19 94.5828 88H97.1033C87.1602 101.359 71.33 110 53.4998 110C35.6695 110 19.8393 101.359 9.89624 88H12.4167ZM53.4998 0C72.2048 0 88.7081 9.5102 98.5232 24H96.0867C86.5483 10.6702 71.0217 2 53.4998 2C35.9778 2.00006 20.4512 10.6701 10.9128 24H8.47632C18.2913 9.51015 34.7948 6.20688e-05 53.4998 0Z" fill="white"/>
<ellipse cx="115.5" cy="54.5" rx="3.5" ry="13.5" fill="white"/>
<path d="M118.5 52C116.5 25 98.5 25.5 98.5 25.5C98.5 25.5 93.7156 29 92.5 52.5C91.2844 76 98.0932 85.2893 98.5 86C98.5 86 120.5 79 118.5 52Z" stroke="white" stroke-width="2"/>
</svg>
