<svg width="243" height="243" viewBox="0 0 243 243" fill="none" xmlns="http://www.w3.org/2000/svg">
<path d="M76.7048 188.133V171.333H82.9928C84.4168 171.333 85.6408 171.565 86.6648 172.029C87.6888 172.477 88.4728 173.133 89.0168 173.997C89.5768 174.845 89.8568 175.877 89.8568 177.093C89.8568 178.277 89.5768 179.301 89.0168 180.165C88.4728 181.013 87.6888 181.669 86.6648 182.133C85.6408 182.597 84.4168 182.829 82.9928 182.829H77.6888L78.4808 181.989V188.133H76.7048ZM78.4808 182.133L77.6888 181.269H82.9448C84.6248 181.269 85.8968 180.909 86.7608 180.189C87.6408 179.453 88.0807 178.421 88.0807 177.093C88.0807 175.749 87.6408 174.709 86.7608 173.973C85.8968 173.237 84.6248 172.869 82.9448 172.869H77.6888L78.4808 172.029V182.133ZM93.0323 188.133V175.533H94.6643V178.965L94.4963 178.365C94.8483 177.405 95.4403 176.677 96.2723 176.181C97.1043 175.669 98.1363 175.413 99.3683 175.413V177.069C99.3043 177.069 99.2403 177.069 99.1763 177.069C99.1123 177.053 99.0483 177.045 98.9843 177.045C97.6562 177.045 96.6163 177.453 95.8643 178.269C95.1123 179.069 94.7363 180.213 94.7363 181.701V188.133H93.0323ZM107.712 188.253C106.4 188.253 105.248 187.981 104.256 187.437C103.264 186.877 102.488 186.117 101.928 185.157C101.368 184.181 101.088 183.069 101.088 181.821C101.088 180.573 101.352 179.469 101.88 178.509C102.424 177.549 103.16 176.797 104.088 176.253C105.032 175.693 106.088 175.413 107.256 175.413C108.44 175.413 109.488 175.685 110.4 176.229C111.328 176.757 112.056 177.509 112.584 178.485C113.112 179.445 113.376 180.557 113.376 181.821C113.376 181.901 113.368 181.989 113.352 182.085C113.352 182.165 113.352 182.253 113.352 182.349H102.384V181.077H112.44L111.768 181.581C111.768 180.669 111.568 179.861 111.168 179.157C110.784 178.437 110.256 177.877 109.584 177.477C108.912 177.077 108.136 176.877 107.256 176.877C106.392 176.877 105.616 177.077 104.928 177.477C104.24 177.877 103.704 178.437 103.32 179.157C102.936 179.877 102.744 180.701 102.744 181.629V181.893C102.744 182.853 102.952 183.701 103.368 184.437C103.8 185.157 104.392 185.725 105.144 186.141C105.912 186.541 106.784 186.741 107.76 186.741C108.528 186.741 109.24 186.605 109.896 186.333C110.568 186.061 111.144 185.645 111.624 185.085L112.584 186.189C112.024 186.861 111.32 187.373 110.472 187.725C109.64 188.077 108.72 188.253 107.712 188.253ZM119.85 188.133L114.258 175.533H116.034L121.17 187.221H120.33L125.538 175.533H127.218L121.602 188.133H119.85ZM129.618 188.133V175.533H131.322V188.133H129.618ZM130.482 172.749C130.13 172.749 129.834 172.629 129.594 172.389C129.354 172.149 129.234 171.861 129.234 171.525C129.234 171.189 129.354 170.909 129.594 170.685C129.834 170.445 130.13 170.325 130.482 170.325C130.834 170.325 131.13 170.437 131.37 170.661C131.61 170.885 131.73 171.165 131.73 171.501C131.73 171.853 131.61 172.149 131.37 172.389C131.146 172.629 130.85 172.749 130.482 172.749ZM141.416 188.253C140.104 188.253 138.952 187.981 137.96 187.437C136.968 186.877 136.192 186.117 135.632 185.157C135.072 184.181 134.792 183.069 134.792 181.821C134.792 180.573 135.056 179.469 135.584 178.509C136.128 177.549 136.864 176.797 137.792 176.253C138.736 175.693 139.792 175.413 140.96 175.413C142.144 175.413 143.192 175.685 144.104 176.229C145.032 176.757 145.76 177.509 146.288 178.485C146.816 179.445 147.08 180.557 147.08 181.821C147.08 181.901 147.072 181.989 147.056 182.085C147.056 182.165 147.056 182.253 147.056 182.349H136.088V181.077H146.144L145.472 181.581C145.472 180.669 145.272 179.861 144.872 179.157C144.488 178.437 143.96 177.877 143.288 177.477C142.616 177.077 141.84 176.877 140.96 176.877C140.096 176.877 139.32 177.077 138.632 177.477C137.944 177.877 137.408 178.437 137.024 179.157C136.64 179.877 136.448 180.701 136.448 181.629V181.893C136.448 182.853 136.656 183.701 137.072 184.437C137.504 185.157 138.096 185.725 138.848 186.141C139.616 186.541 140.488 186.741 141.464 186.741C142.232 186.741 142.944 186.605 143.6 186.333C144.272 186.061 144.848 185.645 145.328 185.085L146.288 186.189C145.728 186.861 145.024 187.373 144.176 187.725C143.344 188.077 142.424 188.253 141.416 188.253ZM152.882 188.133L148.13 175.533H149.762L154.082 187.221H153.338L157.778 175.533H159.242L163.634 187.221H162.89L167.282 175.533H168.842L164.066 188.133H162.458L158.234 177.141H158.738L154.49 188.133H152.882ZM53.5954 217.133V200.333H60.4354C62.2274 200.333 63.7954 200.693 65.1394 201.413C66.4994 202.117 67.5554 203.101 68.3074 204.365C69.0594 205.629 69.4354 207.085 69.4354 208.733C69.4354 210.381 69.0594 211.837 68.3074 213.101C67.5554 214.365 66.4994 215.357 65.1394 216.077C63.7954 216.781 62.2274 217.133 60.4354 217.133H53.5954ZM55.3714 215.597H60.3394C61.8274 215.597 63.1154 215.309 64.2034 214.733C65.3074 214.141 66.1634 213.333 66.7714 212.309C67.3794 211.269 67.6834 210.077 67.6834 208.733C67.6834 207.373 67.3794 206.181 66.7714 205.157C66.1634 204.133 65.3074 203.333 64.2034 202.757C63.1154 202.165 61.8274 201.869 60.3394 201.869H55.3714V215.597ZM73.0635 217.133V204.533H74.7675V217.133H73.0635ZM73.9275 201.749C73.5755 201.749 73.2795 201.629 73.0395 201.389C72.7995 201.149 72.6795 200.861 72.6795 200.525C72.6795 200.189 72.7995 199.909 73.0395 199.685C73.2795 199.445 73.5755 199.325 73.9275 199.325C74.2795 199.325 74.5755 199.437 74.8155 199.661C75.0555 199.885 75.1755 200.165 75.1755 200.501C75.1755 200.853 75.0555 201.149 74.8155 201.389C74.5915 201.629 74.2955 201.749 73.9275 201.749ZM87.4048 217.133V214.349L87.3328 213.893V209.237C87.3328 208.165 87.0288 207.341 86.4208 206.765C85.8288 206.189 84.9408 205.901 83.7568 205.901C82.9408 205.901 82.1648 206.037 81.4288 206.309C80.6928 206.581 80.0688 206.941 79.5568 207.389L78.7888 206.117C79.4288 205.573 80.1968 205.157 81.0928 204.869C81.9888 204.565 82.9328 204.413 83.9248 204.413C85.5568 204.413 86.8128 204.821 87.6928 205.637C88.5888 206.437 89.0368 207.661 89.0368 209.309V217.133H87.4048ZM83.0608 217.253C82.1168 217.253 81.2928 217.101 80.5888 216.797C79.9008 216.477 79.3728 216.045 79.0048 215.501C78.6368 214.941 78.4528 214.301 78.4528 213.581C78.4528 212.925 78.6048 212.333 78.9088 211.805C79.2288 211.261 79.7408 210.829 80.4448 210.509C81.1648 210.173 82.1248 210.005 83.3248 210.005H87.6688V211.277H83.3728C82.1568 211.277 81.3088 211.493 80.8288 211.925C80.3648 212.357 80.1328 212.893 80.1328 213.533C80.1328 214.253 80.4128 214.829 80.9728 215.261C81.5328 215.693 82.3168 215.909 83.3248 215.909C84.2848 215.909 85.1088 215.693 85.7968 215.261C86.5008 214.813 87.0128 214.173 87.3328 213.341L87.7168 214.517C87.3968 215.349 86.8368 216.013 86.0368 216.509C85.2528 217.005 84.2608 217.253 83.0608 217.253ZM99.0411 221.909C97.8891 221.909 96.7851 221.741 95.7291 221.405C94.6731 221.069 93.8171 220.589 93.1611 219.965L94.0251 218.669C94.6171 219.197 95.3451 219.613 96.2091 219.917C97.0891 220.237 98.0171 220.397 98.9931 220.397C100.593 220.397 101.769 220.021 102.521 219.269C103.273 218.533 103.649 217.381 103.649 215.813V212.669L103.889 210.509L103.721 208.349V204.533H105.353V215.597C105.353 217.773 104.817 219.365 103.745 220.373C102.689 221.397 101.121 221.909 99.0411 221.909ZM98.7291 216.653C97.5291 216.653 96.4491 216.397 95.4891 215.885C94.5291 215.357 93.7691 214.629 93.2091 213.701C92.6651 212.773 92.3931 211.709 92.3931 210.509C92.3931 209.309 92.6651 208.253 93.2091 207.341C93.7691 206.413 94.5291 205.693 95.4891 205.181C96.4491 204.669 97.5291 204.413 98.7291 204.413C99.8491 204.413 100.857 204.645 101.753 205.109C102.649 205.573 103.361 206.261 103.889 207.173C104.417 208.085 104.681 209.197 104.681 210.509C104.681 211.821 104.417 212.933 103.889 213.845C103.361 214.757 102.649 215.453 101.753 215.933C100.857 216.413 99.8491 216.653 98.7291 216.653ZM98.8971 215.141C99.8251 215.141 100.649 214.949 101.369 214.565C102.089 214.165 102.657 213.621 103.073 212.933C103.489 212.229 103.697 211.421 103.697 210.509C103.697 209.597 103.489 208.797 103.073 208.109C102.657 207.421 102.089 206.885 101.369 206.501C100.649 206.101 99.8251 205.901 98.8971 205.901C97.9851 205.901 97.1611 206.101 96.4251 206.501C95.7051 206.885 95.1371 207.421 94.7211 208.109C94.3211 208.797 94.1211 209.597 94.1211 210.509C94.1211 211.421 94.3211 212.229 94.7211 212.933C95.1371 213.621 95.7051 214.165 96.4251 214.565C97.1611 214.949 97.9851 215.141 98.8971 215.141ZM116.527 204.413C117.551 204.413 118.447 204.613 119.215 205.013C119.999 205.397 120.607 205.989 121.039 206.789C121.487 207.589 121.711 208.597 121.711 209.813V217.133H120.007V209.981C120.007 208.653 119.671 207.653 118.999 206.981C118.343 206.293 117.415 205.949 116.215 205.949C115.319 205.949 114.535 206.133 113.863 206.501C113.207 206.853 112.695 207.373 112.327 208.061C111.975 208.733 111.799 209.549 111.799 210.509V217.133H110.095V204.533H111.727V207.989L111.463 207.341C111.863 206.429 112.503 205.717 113.383 205.205C114.263 204.677 115.311 204.413 116.527 204.413ZM131.45 217.253C130.234 217.253 129.138 216.981 128.162 216.437C127.202 215.877 126.442 215.117 125.882 214.157C125.322 213.181 125.042 212.069 125.042 210.821C125.042 209.557 125.322 208.445 125.882 207.485C126.442 206.525 127.202 205.773 128.162 205.229C129.122 204.685 130.218 204.413 131.45 204.413C132.698 204.413 133.802 204.685 134.762 205.229C135.738 205.773 136.498 206.525 137.042 207.485C137.602 208.445 137.882 209.557 137.882 210.821C137.882 212.069 137.602 213.181 137.042 214.157C136.498 215.117 135.738 215.877 134.762 216.437C133.786 216.981 132.682 217.253 131.45 217.253ZM131.45 215.741C132.362 215.741 133.17 215.541 133.874 215.141C134.578 214.725 135.13 214.149 135.53 213.413C135.946 212.661 136.154 211.797 136.154 210.821C136.154 209.829 135.946 208.965 135.53 208.229C135.13 207.493 134.578 206.925 133.874 206.525C133.17 206.109 132.37 205.901 131.474 205.901C130.578 205.901 129.778 206.109 129.074 206.525C128.37 206.925 127.81 207.493 127.394 208.229C126.978 208.965 126.77 209.829 126.77 210.821C126.77 211.797 126.978 212.661 127.394 213.413C127.81 214.149 128.37 214.725 129.074 215.141C129.778 215.541 130.57 215.741 131.45 215.741ZM144.744 217.253C143.704 217.253 142.72 217.109 141.792 216.821C140.864 216.517 140.136 216.141 139.608 215.693L140.376 214.349C140.888 214.733 141.544 215.069 142.344 215.357C143.144 215.629 143.984 215.765 144.864 215.765C146.064 215.765 146.928 215.581 147.456 215.213C147.984 214.829 148.248 214.325 148.248 213.701C148.248 213.237 148.096 212.877 147.792 212.621C147.504 212.349 147.12 212.149 146.64 212.021C146.16 211.877 145.624 211.757 145.032 211.661C144.44 211.565 143.848 211.453 143.256 211.325C142.68 211.197 142.152 211.013 141.672 210.773C141.192 210.517 140.8 210.173 140.496 209.741C140.208 209.309 140.064 208.733 140.064 208.013C140.064 207.325 140.256 206.709 140.64 206.165C141.024 205.621 141.584 205.197 142.32 204.893C143.072 204.573 143.984 204.413 145.056 204.413C145.872 204.413 146.688 204.525 147.504 204.749C148.32 204.957 148.992 205.237 149.52 205.589L148.776 206.957C148.216 206.573 147.616 206.301 146.976 206.141C146.336 205.965 145.696 205.877 145.056 205.877C143.92 205.877 143.08 206.077 142.536 206.477C142.008 206.861 141.744 207.357 141.744 207.965C141.744 208.445 141.888 208.821 142.176 209.093C142.48 209.365 142.872 209.581 143.352 209.741C143.848 209.885 144.384 210.005 144.96 210.101C145.552 210.197 146.136 210.317 146.712 210.461C147.304 210.589 147.84 210.773 148.32 211.013C148.816 211.237 149.208 211.565 149.496 211.997C149.8 212.413 149.952 212.965 149.952 213.653C149.952 214.389 149.744 215.029 149.328 215.573C148.928 216.101 148.336 216.517 147.552 216.821C146.784 217.109 145.848 217.253 144.744 217.253ZM157.063 217.253C155.879 217.253 154.967 216.933 154.327 216.293C153.687 215.653 153.367 214.749 153.367 213.581V201.749H155.071V213.485C155.071 214.221 155.255 214.789 155.623 215.189C156.007 215.589 156.551 215.789 157.255 215.789C158.007 215.789 158.631 215.573 159.127 215.141L159.727 216.365C159.391 216.669 158.983 216.893 158.503 217.037C158.039 217.181 157.559 217.253 157.063 217.253ZM151.111 205.949V204.533H158.911V205.949H151.111ZM162.829 217.133V204.533H164.533V217.133H162.829ZM163.693 201.749C163.341 201.749 163.045 201.629 162.805 201.389C162.565 201.149 162.445 200.861 162.445 200.525C162.445 200.189 162.565 199.909 162.805 199.685C163.045 199.445 163.341 199.325 163.693 199.325C164.045 199.325 164.341 199.437 164.581 199.661C164.821 199.885 164.941 200.165 164.941 200.501C164.941 200.853 164.821 201.149 164.581 201.389C164.357 201.629 164.061 201.749 163.693 201.749ZM174.506 217.253C173.258 217.253 172.138 216.981 171.146 216.437C170.17 215.877 169.402 215.117 168.842 214.157C168.282 213.181 168.002 212.069 168.002 210.821C168.002 209.557 168.282 208.445 168.842 207.485C169.402 206.525 170.17 205.773 171.146 205.229C172.138 204.685 173.258 204.413 174.506 204.413C175.578 204.413 176.546 204.621 177.41 205.037C178.274 205.453 178.954 206.077 179.45 206.909L178.178 207.773C177.746 207.133 177.21 206.661 176.57 206.357C175.93 206.053 175.234 205.901 174.482 205.901C173.586 205.901 172.778 206.109 172.058 206.525C171.338 206.925 170.77 207.493 170.354 208.229C169.938 208.965 169.73 209.829 169.73 210.821C169.73 211.813 169.938 212.677 170.354 213.413C170.77 214.149 171.338 214.725 172.058 215.141C172.778 215.541 173.586 215.741 174.482 215.741C175.234 215.741 175.93 215.589 176.57 215.285C177.21 214.981 177.746 214.517 178.178 213.893L179.45 214.757C178.954 215.573 178.274 216.197 177.41 216.629C176.546 217.045 175.578 217.253 174.506 217.253ZM186.182 217.253C185.142 217.253 184.158 217.109 183.23 216.821C182.302 216.517 181.574 216.141 181.046 215.693L181.814 214.349C182.326 214.733 182.982 215.069 183.782 215.357C184.582 215.629 185.422 215.765 186.302 215.765C187.502 215.765 188.366 215.581 188.894 215.213C189.422 214.829 189.686 214.325 189.686 213.701C189.686 213.237 189.534 212.877 189.23 212.621C188.942 212.349 188.558 212.149 188.078 212.021C187.598 211.877 187.062 211.757 186.47 211.661C185.878 211.565 185.286 211.453 184.694 211.325C184.118 211.197 183.59 211.013 183.11 210.773C182.63 210.517 182.238 210.173 181.934 209.741C181.646 209.309 181.502 208.733 181.502 208.013C181.502 207.325 181.694 206.709 182.078 206.165C182.462 205.621 183.022 205.197 183.758 204.893C184.51 204.573 185.422 204.413 186.494 204.413C187.31 204.413 188.126 204.525 188.942 204.749C189.758 204.957 190.43 205.237 190.958 205.589L190.214 206.957C189.654 206.573 189.054 206.301 188.414 206.141C187.774 205.965 187.134 205.877 186.494 205.877C185.358 205.877 184.518 206.077 183.974 206.477C183.446 206.861 183.182 207.357 183.182 207.965C183.182 208.445 183.326 208.821 183.614 209.093C183.918 209.365 184.31 209.581 184.79 209.741C185.286 209.885 185.822 210.005 186.398 210.101C186.99 210.197 187.574 210.317 188.15 210.461C188.742 210.589 189.278 210.773 189.758 211.013C190.254 211.237 190.646 211.565 190.934 211.997C191.238 212.413 191.39 212.965 191.39 213.653C191.39 214.389 191.182 215.029 190.766 215.573C190.366 216.101 189.774 216.517 188.99 216.821C188.222 217.109 187.286 217.253 186.182 217.253Z" fill="#1B3A4B"/>
<ellipse cx="182.5" cy="73.1685" rx="4.5" ry="22.1519" fill="#9D63DD"/>
<line y1="-1" x2="17.0293" y2="-1" transform="matrix(0.704669 -0.709536 0.487701 0.873011 106 56.3867)" stroke="#9D63DD" stroke-width="2"/>
<line x1="121" y1="73.8398" x2="121" y2="46.989" stroke="#9D63DD" stroke-width="2"/>
<line x1="97" y1="73.4972" x2="70" y2="73.4972" stroke="#9D63DD" stroke-width="2"/>
<line x1="91" y1="66.7845" x2="82" y2="66.7845" stroke="#9D63DD" stroke-width="2"/>
<line x1="91" y1="81.5525" x2="82" y2="81.5525" stroke="#9D63DD" stroke-width="2"/>
<line x1="99" y1="88.2651" x2="80" y2="88.2651" stroke="#9D63DD" stroke-width="2"/>
<line y1="-1" x2="17.3563" y2="-1" transform="matrix(-0.633775 0.773517 -0.560691 -0.828025 80 87.2651)" stroke="#9D63DD" stroke-width="2"/>
<line y1="-1" x2="17.3563" y2="-1" transform="matrix(-0.633775 -0.773517 -0.560691 0.828025 80 60.4143)" stroke="#9D63DD" stroke-width="2"/>
<line x1="100" y1="58.7292" x2="80" y2="58.7292" stroke="#9D63DD" stroke-width="2"/>
<line y1="-1" x2="16.34" y2="-1" transform="matrix(0.673194 0.739466 -0.520403 0.853921 106 92.6354)" stroke="#9D63DD" stroke-width="2"/>
<line y1="-1" x2="20.0498" y2="-1" transform="matrix(0.798012 -0.602642 0.386434 0.922317 125 104.718)" stroke="#9D63DD" stroke-width="2"/>
<path d="M187.5 69.8122C185.5 33.5636 167.5 34.2349 167.5 34.2349C167.5 34.2349 162.716 38.9338 161.5 70.4835C160.284 102.033 167.093 114.504 167.5 115.459C167.5 115.459 189.5 106.061 187.5 69.8122Z" stroke="#1B3A4B" stroke-width="2"/>
<ellipse cx="102.5" cy="58.4006" rx="5.5" ry="7.38398" fill="#00A8CC"/>
<ellipse cx="120.5" cy="106.732" rx="5.5" ry="7.38398" fill="#00A8CC"/>
<ellipse cx="102.5" cy="87.9365" rx="5.5" ry="7.38398" fill="#00A8CC"/>
<ellipse cx="145.5" cy="89.279" rx="5.5" ry="7.38398" fill="#00A8CC"/>
<ellipse cx="145.5" cy="57.0581" rx="5.5" ry="7.38398" fill="#00A8CC"/>
<ellipse cx="120.5" cy="74.5111" rx="5.5" ry="7.38398" fill="#00A8CC"/>
<ellipse cx="120.5" cy="40.9475" rx="5.5" ry="7.38398" fill="#00A8CC"/>
<path fill-rule="evenodd" clip-rule="evenodd" d="M122 10.3978C133.851 10.3978 144.692 17.1116 152.675 28.1934H153.903C145.753 16.5841 134.469 9.39777 122 9.39777C109.531 9.39777 98.2473 16.5841 90.0974 28.1934H91.3245C99.3075 17.1116 110.149 10.3978 122 10.3978ZM93.3845 120.829H92.1008C100.05 130.851 110.523 136.939 122 136.939C133.477 136.939 143.95 130.851 151.899 120.829H150.615C142.874 130.3 132.861 135.939 122 135.939C111.139 135.939 101.126 130.3 93.3845 120.829Z" fill="#00A8CC"/>
<path fill-rule="evenodd" clip-rule="evenodd" d="M159.428 124.865C160.986 122.753 162.45 120.509 163.808 118.144H166.104C156.161 136.079 140.33 147.68 122.5 147.68C104.67 147.68 88.8391 136.079 78.896 118.144H81.1924C82.5503 120.509 84.0135 122.753 85.5718 124.865C95.156 137.85 108.235 145.68 122.5 145.68C136.765 145.68 149.844 137.85 159.428 124.865ZM79.7231 32.221C81.4762 28.8573 83.4346 25.7105 85.5718 22.8149C95.156 9.82962 108.235 2 122.5 2C136.765 2 149.844 9.82962 159.428 22.8149C161.565 25.7105 163.524 28.8573 165.277 32.221H167.525C157.71 12.7674 141.205 0 122.5 0C103.795 0 87.2904 12.7674 77.4754 32.221H79.7231Z" fill="#1B3A4B"/>
<ellipse cx="184.5" cy="73.1685" rx="3.5" ry="18.1243" fill="#1B3A4B"/>
</svg>
